<svg xmlns="http://www.w3.org/2000/svg" width="352" height="448" viewBox="0 0 352 448">
  <path d="M96 336q0 20-14 34t-34 14-34-14-14-34 14-34 34-14 34 14 14 34zm128 30.75q.5 7-4.25 12Q215.25 384 208 384h-33.75q-6.25 0-10.75-4.125t-5-10.375q-5.5-57.25-46.125-97.875T14.5 225.5q-6.25-.5-10.375-5T0 209.75V176q0-7.25 5.25-11.75Q9.5 160 16 160h1.25q40 3.25 76.5 20.125T158.5 225.5q28.5 28.25 45.375 64.75T224 366.75zm128 .5q.5 6.75-4.5 11.75-4.5 5-11.5 5h-35.75q-6.5 0-11.125-4.375T284.25 369q-3-53.75-25.25-102.125t-57.875-84-84-57.875T15 99.5q-6.25-.25-10.625-4.875T0 83.75V48q0-7 5-11.5Q9.5 32 16 32h.75q65.5 3.25 125.375 30T248.5 135.5Q295.25 182 322 241.875t30 125.375z"/>
</svg>
